<?xml version="1.0" standalone="no"?>
<!DOCTYPE svg PUBLIC "-//W3C//DTD SVG 20010904//EN"
 "http://www.w3.org/TR/2001/REC-SVG-20010904/DTD/svg10.dtd">
<svg version="1.0" xmlns="http://www.w3.org/2000/svg"
 width="626.000000pt" height="417.000000pt" viewBox="0 0 626.000000 417.000000"
 preserveAspectRatio="xMidYMid meet">

<g transform="translate(0.000000,417.000000) scale(0.100000,-0.100000)"
fill="#000000" stroke="none">
<path d="M0 2085 l0 -2085 3130 0 3130 0 0 2085 0 2085 -3130 0 -3130 0 0
-2085z m3834 1999 c23 -9 21 -61 -2 -73 -14 -7 -25 -6 -40 5 -26 18 -28 37 -6
58 17 18 24 19 48 10z m960 -65 c11 -41 20 -56 33 -56 58 1 103 -4 103 -10 0
-5 -22 -24 -49 -43 l-48 -34 14 -54 c8 -30 13 -58 11 -64 -2 -5 -24 7 -50 26
l-46 35 -46 -41 c-26 -22 -49 -38 -52 -35 -3 2 2 32 10 65 9 33 16 62 16 64 0
2 -20 19 -45 38 -25 19 -45 37 -45 42 0 4 27 8 60 8 l59 0 17 58 c26 92 32 92
58 1z m-4256 47 c153 -41 237 -150 237 -311 0 -212 -180 -385 -379 -361 -91
10 -147 36 -203 91 -70 70 -98 158 -90 279 10 152 78 255 202 303 42 16 170
16 233 -1z m1291 -114 c6 -11 21 -28 33 -36 l22 -16 -26 -27 c-27 -30 -48 -81
-48 -119 0 -43 -17 -25 -29 30 -7 30 -23 66 -37 81 -29 32 -30 37 -3 53 25 16
49 70 49 110 0 50 15 46 21 -5 4 -27 12 -59 18 -71z m-922 92 c7 -18 -17 -38
-31 -24 -11 11 -1 40 14 40 6 0 13 -7 17 -16z m318 -39 l25 -55 55 0 c30 0 55
-4 55 -10 0 -5 -18 -22 -40 -36 -43 -29 -44 -36 -13 -97 21 -42 9 -44 -42 -8
l-46 33 -47 -37 c-51 -39 -59 -36 -43 22 16 56 15 61 -29 83 -22 11 -40 25
-40 30 0 8 63 16 92 11 4 0 12 18 18 42 18 67 21 77 26 77 3 0 16 -25 29 -55z
m4310 43 c52 -23 84 -109 66 -175 -32 -117 -185 -136 -250 -30 -40 65 -16 133
55 163 51 21 73 17 110 -20 45 -45 48 -103 8 -135 -30 -24 -52 -26 -87 -10
-67 31 -56 139 14 139 51 0 88 -57 57 -88 -29 -29 -69 -3 -53 36 7 15 9 14 14
-6 7 -28 24 -34 29 -9 8 38 -47 64 -76 35 -31 -31 4 -98 52 -98 57 0 77 80 31
125 -38 39 -98 30 -137 -19 -52 -63 19 -166 114 -166 86 0 135 102 90 190 -22
44 -53 60 -119 60 -29 0 -53 5 -53 10 0 14 103 13 135 -2z m-3116 -29 c22 -39
1 -82 -52 -107 l-41 -19 27 -27 c44 -44 99 -27 110 34 4 23 4 23 6 -4 3 -64
-76 -90 -124 -41 -14 13 -25 29 -25 35 0 14 -41 12 -61 -3 -31 -23 -32 -55 -4
-83 22 -22 32 -25 63 -20 27 5 33 4 22 -3 -42 -29 -120 10 -120 60 0 30 38 69
67 69 31 0 39 24 19 55 -34 52 -124 17 -127 -49 -1 -14 -3 -16 -6 -5 -7 29 16
69 50 85 30 14 38 15 63 3 18 -9 32 -26 39 -46 10 -36 29 -41 63 -17 15 10 22
25 22 48 0 37 -12 52 -50 59 -17 4 -14 5 10 4 26 -2 38 -8 49 -28z m3651 -9
c0 -41 26 -101 53 -123 20 -15 20 -19 6 -30 -28 -22 -47 -61 -54 -109 -7 -46
-25 -68 -25 -30 0 36 -22 93 -47 123 l-27 31 22 17 c26 20 52 80 52 121 0 16
5 30 10 30 6 0 10 -14 10 -30z m-3142 -6 c2 -14 -3 -20 -18 -20 -12 0 -20 7
-20 16 0 35 33 38 38 4z m-1343 -14 c0 -18 -6 -26 -23 -28 -24 -4 -38 18 -28
44 3 9 15 14 28 12 17 -2 23 -10 23 -28z m2565 -30 c24 0 27 -15 4 -24 -12 -4
-14 -13 -10 -32 6 -23 5 -24 -14 -14 -16 9 -25 8 -36 -1 -11 -9 -14 -7 -14 14
0 14 -4 29 -10 32 -17 10 -11 25 9 25 12 0 23 9 27 22 l7 23 8 -23 c5 -13 17
-22 29 -22z m-690 -15 c0 -113 44 -220 110 -269 22 -17 40 -32 40 -35 0 -3
-16 -16 -34 -28 -45 -29 -91 -125 -107 -223 -14 -89 -25 -107 -34 -54 -24 142
-52 212 -107 265 l-39 37 54 54 c60 60 85 120 94 231 7 75 23 91 23 22z m-172
-86 c48 -55 63 -80 45 -78 -8 0 -105 115 -111 131 -10 23 19 0 66 -53z m380
43 c-33 -47 -108 -125 -114 -120 -7 8 105 138 118 138 5 0 3 -8 -4 -18z m-458
-262 c18 -6 6 -8 -43 -9 -43 -1 -66 3 -62 9 7 12 69 12 105 0z m570 0 c0 -5
-25 -10 -55 -10 -30 0 -55 5 -55 10 0 6 25 10 55 10 30 0 55 -4 55 -10z m1959
-22 c23 -40 6 -78 -47 -104 l-43 -20 25 -27 c42 -45 98 -29 109 33 4 23 4 23
6 -4 1 -39 -25 -66 -63 -66 -35 1 -57 15 -75 48 -23 44 -91 18 -91 -35 0 -40
23 -58 73 -57 31 1 36 -1 23 -8 -21 -12 -80 -2 -94 15 -37 44 -11 109 48 120
54 11 29 77 -30 77 -36 0 -66 -26 -79 -70 l-11 -35 5 40 c5 43 30 71 72 81 33
9 77 -24 81 -59 5 -43 64 -29 83 20 12 32 -9 69 -43 76 -16 4 -14 5 7 4 21 -2
34 -10 44 -29z m-3177 -29 l27 -33 78 12 c138 21 237 13 218 -17 -11 -19 -53
-31 -179 -52 -111 -19 -144 -32 -146 -60 0 -4 -16 -14 -36 -24 -46 -22 -98
-15 -133 18 -26 23 -28 24 -145 16 -114 -8 -156 -3 -156 21 0 18 43 32 156 47
93 14 114 20 114 33 0 22 40 59 76 70 50 16 96 4 126 -31z m2200 1 c14 -10 28
-17 30 -14 11 10 153 -18 189 -38 21 -12 45 -36 53 -53 9 -18 22 -38 31 -45
28 -23 11 -64 -27 -65 -13 -1 -34 -8 -48 -15 -14 -7 -67 -17 -119 -21 l-93 -7
-48 48 -48 49 0 80 c0 65 3 83 16 91 25 14 36 12 64 -10z m532 -5 c8 -23 -4
-45 -25 -45 -11 0 -22 7 -25 15 -9 23 3 45 25 45 10 0 21 -7 25 -15z m-3811
-63 c-6 -23 -41 -26 -39 -4 0 9 6 22 11 28 14 16 34 -2 28 -24z m2704 -17 c59
-39 85 -122 59 -190 -23 -58 -66 -85 -135 -85 -97 0 -151 49 -151 135 0 66 29
111 90 143 50 26 94 24 137 -3z m-550 -65 c29 -44 49 -81 45 -84 -8 -5 -112
141 -112 157 0 20 20 -1 67 -73z m-297 55 c0 -9 -121 -150 -132 -154 -15 -5
-3 14 61 92 48 59 71 79 71 62z m-2306 -51 c26 -25 20 -79 -10 -103 -15 -12
-35 -21 -45 -21 -11 0 -19 -5 -19 -10 0 -20 49 -60 73 -60 28 0 40 12 55 55
l10 30 1 -27 c2 -63 -78 -90 -124 -43 -14 13 -25 29 -25 35 0 15 -43 12 -68
-6 -51 -35 -11 -99 61 -97 30 2 37 -1 27 -7 -25 -16 -66 -11 -94 11 -50 39
-24 112 45 126 24 5 28 9 23 27 -11 35 -25 46 -60 46 -39 0 -74 -32 -74 -67 0
-14 -4 -22 -9 -18 -14 8 6 59 30 81 29 26 87 24 110 -5 11 -13 19 -32 19 -42
0 -22 12 -24 43 -8 29 16 37 28 37 60 0 30 -14 45 -50 52 l-25 4 27 2 c15 0
34 -6 42 -15z m5068 -74 c17 0 18 -3 8 -15 -7 -8 -10 -24 -7 -35 6 -22 -3 -26
-21 -8 -9 9 -18 9 -37 0 -24 -11 -26 -11 -20 9 5 14 1 25 -12 34 -17 13 -16
14 10 15 19 0 27 5 27 18 0 31 14 35 23 8 6 -17 16 -26 29 -26z m-4602 -35 c0
-3 -11 -27 -24 -53 -42 -84 -70 -205 -50 -224 3 -3 27 4 54 15 27 11 53 18 56
14 10 -10 -61 -88 -267 -299 -148 -151 -195 -192 -239 -213 -74 -33 -105 -32
-140 5 -48 52 -50 129 -4 201 23 37 39 52 254 236 120 102 263 235 314 291 27
29 46 40 46 27z m505 -24 c79 -46 101 -157 46 -242 -87 -138 -292 -88 -317 77
-12 83 35 159 114 185 37 12 121 1 157 -20z m3445 -121 c0 -80 -4 -130 -10
-130 -6 0 -10 50 -10 130 0 80 4 130 10 130 6 0 10 -50 10 -130z m-2440 72
c43 -22 73 -71 64 -107 -11 -43 -73 -77 -152 -83 -62 -4 -71 -2 -97 20 -22 20
-27 30 -21 51 13 54 125 78 166 37 16 -16 18 -25 10 -40 -13 -24 -33 -26 -54
-4 -23 23 -19 27 9 8 23 -15 25 -15 32 1 16 44 -93 60 -137 20 -77 -69 97
-115 192 -52 25 18 34 31 36 58 6 71 -88 113 -200 90 -139 -30 -201 -141 -115
-205 22 -16 46 -22 111 -24 45 -2 99 1 119 6 20 6 37 6 37 2 0 -13 -66 -24
-140 -24 -209 1 -247 178 -53 249 53 19 150 18 193 -3z m-2420 -37 c18 -21 5
-45 -25 -45 -20 0 -25 5 -25 23 0 39 26 50 50 22z m3977 -57 c-4 -15 -2 -18
16 -12 19 6 20 5 8 -10 -12 -14 -10 -16 13 -16 14 0 26 -4 26 -10 0 -5 -9 -10
-20 -10 -14 0 -18 -5 -13 -17 6 -16 5 -16 -10 -4 -18 14 -22 7 -18 -26 1 -6
-3 -14 -9 -18 -6 -4 -10 4 -10 19 0 28 -8 32 -28 16 -9 -7 -9 -7 -2 2 16 20
12 28 -16 28 -14 0 -23 4 -19 10 3 6 18 10 32 10 22 0 24 2 13 15 -11 13 -10
14 4 9 12 -5 16 0 16 21 0 16 4 24 11 19 6 -3 8 -15 6 -26z m-4327 -18 c24 0
34 -16 15 -24 -8 -3 -15 -17 -15 -31 0 -25 -14 -34 -25 -15 -4 7 -13 6 -27 -1
-19 -10 -20 -9 -15 9 3 12 -1 26 -9 33 -21 17 -17 29 10 29 16 0 26 8 31 23
l8 22 4 -22 c3 -14 12 -23 23 -23z m5040 -131 c22 -41 5 -29 -80 56 -49 49
-90 94 -90 98 0 12 158 -131 170 -154z m420 74 c-82 -87 -110 -111 -110 -96 0
11 173 183 183 183 5 0 -28 -39 -73 -87z m-359 17 c22 -51 24 -61 12 -59 -12
2 -53 109 -43 109 5 0 19 -22 31 -50z m218 -2 c-23 -60 -45 -89 -36 -47 11 43
37 99 47 99 5 0 0 -24 -11 -52z m-3055 36 c21 -8 21 -50 0 -58 -32 -12 -57 27
-32 52 14 14 12 14 32 6z m-96 -61 c-2 -10 -10 -18 -18 -18 -8 0 -16 8 -18 18
-2 12 3 17 18 17 15 0 20 -5 18 -17z m1544 -5 c9 -7 18 -21 20 -31 5 -29 274
-183 318 -182 32 0 35 -2 38 -33 3 -26 -1 -35 -16 -38 -15 -5 -27 -40 -65
-207 -61 -261 -62 -267 -48 -267 6 0 83 30 172 68 131 54 164 72 175 95 8 15
22 27 32 27 38 0 55 -47 29 -79 -11 -13 -11 -55 -4 -211 8 -174 11 -196 28
-208 37 -26 14 -77 -33 -70 -18 2 -24 10 -26 36 -2 20 2 34 10 37 10 4 12 29
6 118 -3 61 -7 151 -7 199 -1 125 -1 125 -201 40 -123 -52 -164 -74 -173 -92
-22 -43 -64 -32 -80 21 -3 9 -75 70 -160 136 -123 96 -159 120 -179 116 -31
-6 -52 19 -44 51 3 14 15 27 25 31 15 4 34 49 80 188 40 120 57 185 51 191
-15 15 -12 42 6 60 19 19 25 20 46 4z m-411 -65 c-29 -32 -70 -94 -91 -138
-66 -136 -63 -139 35 -47 84 80 155 127 177 120 7 -3 -13 -18 -43 -35 -50 -29
-191 -153 -174 -153 4 0 38 11 74 24 73 26 173 45 156 29 -5 -6 -35 -15 -67
-22 -31 -7 -91 -25 -133 -41 -42 -17 -81 -30 -87 -30 -18 0 1 70 41 155 35 74
145 214 159 201 2 -3 -19 -31 -47 -63z m-961 32 c0 -8 -7 -15 -15 -15 -8 0
-15 7 -15 15 0 8 7 15 15 15 8 0 15 -7 15 -15z m-92 -7 c18 -18 14 -56 -7 -68
-26 -14 -50 -3 -57 26 -11 42 34 72 64 42z m1202 -7 c0 -5 -12 -11 -27 -14
-16 -3 -52 -26 -81 -51 -64 -55 -79 -60 -32 -11 19 19 57 46 84 60 57 28 56
28 56 16z m-1304 -16 c7 -18 -13 -45 -33 -45 -17 0 -27 24 -19 45 7 20 45 19
52 0z m3148 -36 c48 -32 66 -68 66 -129 0 -59 -17 -97 -59 -133 -112 -94 -282
18 -258 170 9 51 33 82 80 104 54 25 124 21 171 -12z m-343 -20 c27 -12 49
-25 49 -30 0 -5 -17 -2 -37 7 -21 9 -46 18 -55 21 -10 3 -18 9 -18 14 0 13 5
12 61 -12z m559 12 c0 -5 -8 -11 -17 -14 -10 -3 -35 -12 -55 -21 -52 -22 -48
-5 5 21 46 24 67 28 67 14z m350 -21 c0 -11 -7 -20 -15 -20 -8 0 -15 9 -15 20
0 11 7 20 15 20 8 0 15 -9 15 -20z m-3535 -20 c0 -8 -8 -16 -17 -18 -13 -2
-18 3 -18 18 0 15 5 20 18 18 9 -2 17 -10 17 -18z m-153 -5 c0 -5 -5 -11 -11
-13 -6 -2 -11 4 -11 13 0 9 5 15 11 13 6 -2 11 -8 11 -13z m-1870 -37 c2 -17
9 -22 22 -20 17 3 18 2 7 -12 -12 -14 -10 -16 12 -16 14 0 29 -4 32 -10 4 -6
-5 -10 -21 -10 -22 0 -25 -2 -14 -15 15 -18 -1 -20 -18 -3 -9 9 -12 5 -12 -19
0 -18 -4 -35 -10 -38 -6 -4 -10 9 -10 31 0 33 -2 35 -17 23 -15 -12 -16 -12
-10 4 5 12 1 17 -13 17 -10 0 -22 5 -25 10 -4 6 7 10 27 10 32 1 32 1 13 16
-20 16 -19 16 4 9 21 -7 23 -5 19 19 -3 14 -2 26 3 26 4 0 9 -10 11 -22z
m3198 12 c0 -5 -8 -10 -17 -10 -10 0 -46 -13 -80 -30 -35 -16 -63 -25 -63 -21
0 8 99 55 135 64 11 3 21 5 23 6 1 0 2 -3 2 -9z m1480 -50 c10 -6 -30 -9 -120
-8 -100 1 -121 3 -80 8 87 11 184 11 200 0z m690 0 c10 -6 -31 -9 -125 -8
-106 1 -125 3 -80 8 95 11 189 11 205 0z m-2916 -92 c27 -75 31 -78 97 -78 33
0 59 -2 59 -4 0 -3 -21 -25 -46 -49 l-46 -43 22 -61 c12 -34 21 -66 19 -72 -3
-7 -28 4 -61 24 -64 40 -72 39 -122 -14 -33 -34 -60 -41 -53 -13 3 9 8 35 12
57 3 22 8 47 11 56 3 10 -14 30 -46 56 -29 24 -46 44 -40 48 6 4 35 9 65 12
l54 6 17 73 c20 84 29 84 58 2z m-1084 20 c0 -2 -9 -28 -21 -58 -27 -70 -36
-190 -19 -261 31 -133 131 -256 265 -326 l77 -40 -33 -25 c-91 -69 -215 -106
-312 -94 -123 16 -240 103 -300 225 -30 62 -32 72 -32 176 0 102 2 114 30 168
30 60 112 144 169 174 50 26 176 69 176 61z m3340 -13 c0 -5 -107 -55 -116
-55 -2 0 -4 4 -4 9 0 5 21 18 48 29 47 21 72 26 72 17z m458 -20 c23 -9 42
-21 42 -26 0 -5 -23 0 -50 11 -28 11 -53 20 -55 20 -3 0 -5 5 -5 11 0 6 6 9
13 6 6 -3 31 -13 55 -22z m-926 -47 c-2 -9 -9 -16 -16 -15 -16 3 -25 30 -14
44 13 17 37 -5 30 -29z m427 -97 c-76 -82 -107 -108 -97 -82 5 17 170 182 175
177 3 -3 -32 -46 -78 -95z m546 -53 c14 -17 23 -33 20 -36 -7 -7 -185 168
-185 181 0 11 130 -104 165 -145z m344 112 c89 -25 132 -119 92 -198 -42 -82
-143 -103 -218 -46 -80 61 -62 199 31 240 38 16 51 17 95 4z m-751 -62 c-24
-60 -38 -80 -38 -56 0 25 38 108 49 108 5 0 0 -24 -11 -52z m210 -10 c11 -26
17 -50 13 -53 -8 -4 -51 87 -51 108 0 19 17 -5 38 -55z m-108 -83 c0 -77 -4
-125 -10 -125 -6 0 -10 48 -10 125 0 77 4 125 10 125 6 0 10 -48 10 -125z
m-4030 95 c15 -28 -4 -60 -35 -60 -31 0 -50 32 -35 60 6 12 21 20 35 20 14 0
29 -8 35 -20z m786 2 c11 -7 5 -42 -8 -45 -4 -1 -14 7 -22 18 -11 15 -11 22
-3 27 15 10 19 10 33 0z m389 -164 c3 -9 18 -24 33 -34 l26 -17 -21 -17 c-25
-20 -53 -72 -53 -99 0 -26 -10 -51 -21 -51 -5 0 -9 12 -9 28 0 33 -31 102 -53
121 -16 12 -14 16 13 44 17 18 32 46 35 66 14 86 17 89 30 31 7 -30 16 -63 20
-72z m-2178 81 c15 -5 40 -22 55 -36 74 -71 26 -203 -74 -203 -99 0 -138 103
-57 149 24 13 29 13 52 -2 39 -25 50 -52 31 -71 -31 -31 -75 -10 -53 25 7 11
9 10 9 -4 0 -12 6 -17 17 -15 27 5 26 25 -2 44 -39 25 -75 6 -75 -39 0 -74 89
-98 141 -39 34 38 38 82 10 128 -43 70 -143 68 -213 -5 -51 -54 -59 -101 -27
-161 30 -56 74 -80 147 -80 66 0 113 19 152 62 21 23 30 28 30 16 0 -20 -53
-66 -97 -85 -43 -17 -137 -17 -172 2 -39 20 -78 68 -92 114 -15 52 2 102 52
151 54 52 112 70 166 49z m3106 -35 c9 -10 -4 -34 -18 -34 -17 0 -28 17 -20
30 7 11 28 13 38 4z m-2405 -81 c22 -11 45 -33 57 -55 18 -35 19 -40 5 -65
-25 -43 -64 -66 -123 -71 -99 -8 -167 31 -167 95 0 59 86 91 169 62 53 -19 69
-75 29 -103 -32 -23 -61 -20 -89 10 -24 25 -24 26 -5 40 11 8 31 14 45 13 24
-1 23 -2 -6 -10 -37 -11 -43 -33 -14 -49 31 -16 49 -12 66 14 23 35 6 62 -48
77 -47 13 -112 -3 -130 -32 -19 -30 1 -69 46 -89 114 -52 243 7 211 96 -17 50
-56 69 -152 73 -66 3 -80 6 -57 12 44 11 121 2 163 -18z m3944 -19 c83 -43 42
-135 -74 -164 -94 -24 -221 24 -204 78 8 25 66 53 122 60 75 8 139 -39 102
-76 -24 -24 -139 -7 -123 19 4 5 18 9 33 8 l27 -1 -25 -7 c-22 -6 -23 -8 -7
-14 32 -12 74 -8 88 9 11 14 10 18 -6 31 -15 10 -40 14 -92 11 -59 -3 -77 -8
-95 -26 -18 -18 -20 -26 -12 -40 29 -45 196 -56 250 -16 39 28 48 47 40 78 -4
18 -18 32 -41 42 -46 19 -194 19 -240 0 -19 -8 -35 -11 -35 -7 0 10 42 28 80
35 45 8 182 -4 212 -20z m-1894 -143 c91 -47 100 -181 15 -236 -40 -27 -111
-25 -151 4 -87 61 -81 189 9 234 45 22 82 21 127 -2z m346 -16 c5 -19 13 -25
33 -25 25 0 26 -1 8 -13 -13 -10 -16 -21 -11 -40 7 -30 4 -32 -24 -17 -13 7
-21 6 -30 -5 -19 -22 -28 -18 -22 10 3 16 -2 33 -13 45 -16 17 -16 19 7 22 15
2 24 11 26 26 4 29 18 28 26 -3z m2456 -84 l23 -51 59 0 c32 0 58 -3 58 -7 0
-5 -19 -24 -42 -44 l-42 -36 11 -49 c7 -27 8 -52 5 -56 -4 -4 -28 6 -54 23
l-46 30 -56 -31 c-61 -35 -65 -31 -41 35 20 57 19 59 -25 90 -23 16 -37 32
-33 36 4 4 30 9 57 11 47 3 50 4 63 43 22 65 23 66 31 61 4 -2 19 -27 32 -55z
m-352 20 c8 -5 12 -21 10 -37 -3 -32 -38 -45 -64 -24 -40 34 9 90 54 61z
m-1611 -93 c0 -20 -34 -20 -42 0 -2 7 1 19 7 26 15 15 35 0 35 -26z m-3833
-40 c23 -37 -36 -77 -63 -44 -8 10 -11 26 -7 42 5 20 12 25 33 22 14 -2 31
-11 37 -20z m746 -8 c6 -11 8 -25 5 -30 -7 -11 11 -34 120 -155 40 -44 87 -97
105 -117 19 -23 41 -38 55 -38 12 0 28 -7 35 -15 16 -20 4 -65 -18 -66 -9 -1
-24 -2 -33 -3 -9 0 -91 -62 -183 -136 -116 -95 -166 -141 -166 -156 0 -11 -5
-25 -12 -32 -17 -17 -55 -15 -66 4 -8 14 -31 15 -210 9 -146 -6 -205 -11 -212
-21 -11 -12 6 -80 71 -280 31 -96 51 -106 288 -139 149 -21 199 -25 213 -16
29 18 58 13 70 -14 21 -47 -43 -79 -73 -36 -12 17 -49 25 -223 50 -192 28
-211 30 -227 15 -36 -33 -83 11 -59 56 8 16 1 52 -37 181 -40 135 -52 163 -71
170 -39 15 -24 79 19 79 9 0 22 -7 29 -15 10 -11 35 -15 110 -15 172 0 308 12
314 27 9 22 -152 337 -177 349 -30 12 -35 59 -8 73 11 6 26 9 33 6 17 -7 243
219 234 234 -12 18 13 51 39 51 14 0 29 -8 35 -20z m4289 -4 c15 -18 -2 -56
-24 -56 -25 0 -37 36 -19 54 19 20 28 20 43 2z m89 -14 c2 -7 -3 -12 -12 -12
-9 0 -16 7 -16 16 0 17 22 14 28 -4z m-3975 -32 c-5 -17 -42 -22 -38 -5 7 33
17 44 29 32 7 -6 11 -18 9 -27z m1400 -39 c171 -83 210 -309 78 -441 -52 -52
-96 -70 -172 -70 -55 0 -99 29 -99 66 0 19 -5 24 -26 24 -56 0 -115 22 -127
47 -10 21 -16 24 -45 19 -63 -10 -91 -62 -61 -118 12 -23 67 -48 106 -48 19 0
24 -3 16 -11 -19 -19 -85 2 -120 37 -60 59 -38 131 50 155 23 7 53 23 65 36
27 28 62 43 98 43 22 0 24 3 19 23 -27 94 -131 120 -247 61 -99 -50 -151 -126
-151 -219 0 -106 58 -180 170 -216 81 -26 253 -29 346 -6 66 17 78 4 15 -15
-26 -8 -99 -13 -183 -12 -123 0 -147 2 -198 23 -115 45 -166 117 -167 229 0
76 21 123 80 176 60 54 134 86 198 86 78 0 117 -22 144 -80 19 -42 27 -49 59
-54 24 -4 45 -16 59 -33 l21 -26 27 20 c41 30 42 84 3 123 -20 20 -39 30 -60
30 -16 0 -33 5 -36 10 -10 16 43 12 82 -7 74 -35 83 -140 15 -174 -18 -9 -41
-28 -52 -41 -11 -14 -33 -31 -50 -38 -23 -10 -30 -19 -30 -41 0 -36 27 -51 92
-51 243 2 301 360 78 478 -28 15 -57 19 -145 19 -101 0 -115 -2 -163 -27 -52
-27 -72 -24 -29 5 82 53 249 62 340 18z m2553 -17 c7 -28 -10 -54 -35 -54 -24
0 -41 20 -41 47 0 45 65 51 76 7z m-1021 -2 c78 -45 104 -117 69 -194 -23 -51
-108 -109 -203 -139 -133 -40 -402 -89 -497 -89 -117 0 -182 28 -213 94 -39
79 -22 148 50 209 51 44 132 72 274 93 55 8 129 21 165 29 105 23 110 23 215
21 84 -1 107 -5 140 -24z m1110 -3 c0 -7 -8 -15 -17 -17 -18 -3 -25 18 -11 32
10 10 28 1 28 -15z m-227 -6 c-2 -10 -10 -18 -18 -18 -8 0 -16 8 -18 18 -2 12
3 17 18 17 15 0 20 -5 18 -17z m-4747 -19 c98 -50 86 -198 -21 -251 -54 -28
-92 -29 -147 -4 -75 35 -102 114 -64 189 41 81 146 111 232 66z m4808 -51 c11
-21 -3 -53 -24 -53 -21 0 -35 31 -24 52 12 23 35 23 48 1z m96 -33 c-5 -8 -11
-8 -17 -2 -6 6 -7 16 -3 22 5 8 11 8 17 2 6 -6 7 -16 3 -22z m-3545 -55 c0
-27 9 -32 28 -13 7 7 12 8 12 4 0 -5 -8 -15 -17 -22 -16 -12 -14 -13 20 -14
23 0 36 -4 32 -10 -3 -5 -18 -10 -32 -10 -21 0 -24 -2 -13 -15 15 -18 -1 -20
-18 -3 -9 9 -12 5 -12 -20 0 -18 -5 -32 -11 -32 -7 0 -10 12 -7 30 4 28 4 29
-14 13 -20 -18 -25 -4 -6 15 9 9 5 12 -20 12 -18 0 -32 5 -32 10 0 6 14 10 32
10 25 0 29 3 20 12 -7 7 -12 17 -12 22 0 6 5 5 12 -2 18 -18 26 -14 23 13 -2
14 1 25 6 25 5 0 9 -11 9 -25z m1463 -17 c6 -18 -11 -48 -27 -48 -20 0 -37 25
-30 44 7 19 50 22 57 4z m1521 -41 c8 -12 7 -21 -5 -32 -21 -21 -49 -9 -49 20
0 36 34 44 54 12z m856 -60 c54 -27 70 -41 97 -87 28 -45 33 -64 33 -115 -1
-180 -164 -284 -347 -221 -58 19 -66 31 -29 40 38 9 85 54 111 106 50 100 42
213 -22 276 -18 18 -33 36 -33 40 0 18 130 -9 190 -39z m506 -26 c12 10 13 9
8 -6 -6 -15 -3 -17 14 -13 12 4 25 2 28 -3 3 -5 -7 -9 -21 -9 -21 0 -26 -4
-21 -16 5 -14 4 -15 -9 -4 -13 11 -15 8 -16 -21 -1 -25 -3 -28 -6 -11 -3 16
-9 22 -20 18 -13 -5 -14 -4 -3 9 11 13 8 16 -19 21 -17 4 -29 10 -26 14 2 4
17 5 32 2 26 -5 27 -4 13 13 -14 17 -13 18 3 12 11 -4 17 -2 16 6 -1 6 0 21 1
32 2 11 5 3 7 -18 4 -32 7 -36 19 -26z m-1168 -18 c-2 -5 -17 -35 -34 -68 -41
-78 -66 -157 -62 -192 3 -26 6 -28 43 -27 22 0 48 4 58 8 63 29 -65 -147 -235
-321 -81 -83 -159 -133 -207 -133 -38 0 -86 33 -101 70 -40 97 75 259 390 546
121 110 159 140 148 117z m-3463 -125 c-38 -40 -73 -77 -77 -82 -5 -6 -8 -5
-8 2 0 15 129 152 143 152 6 0 -21 -33 -58 -72z m-55 56 c0 -3 -9 -19 -20 -34
-31 -44 -90 -172 -105 -230 l-14 -53 120 127 c67 69 125 126 131 126 6 0 -42
-56 -106 -124 -64 -68 -116 -127 -116 -130 0 -4 18 3 39 13 49 26 176 61 216
61 41 -1 14 -15 -45 -25 -56 -9 -172 -50 -214 -76 -39 -24 -46 -24 -46 -1 0
58 56 207 116 310 21 36 44 55 44 36z m3736 -21 c-3 -8 -6 -17 -6 -19 0 -2 -6
-4 -14 -4 -18 0 -30 31 -15 41 18 11 41 -1 35 -18z m-1858 -45 c7 -7 12 -20
12 -29 0 -9 7 -23 16 -30 43 -35 32 -119 -18 -134 -12 -4 -31 -14 -41 -23 -13
-12 -22 -13 -40 -4 -12 6 -58 13 -101 17 -44 3 -95 13 -114 21 -19 8 -43 14
-53 14 -11 0 -24 11 -31 25 -9 21 -7 30 17 65 44 64 47 65 171 64 85 0 115 3
118 13 7 16 48 17 64 1z m-1663 -67 c-3 -5 -18 -12 -34 -16 -16 -3 -55 -22
-87 -41 -31 -19 -59 -33 -61 -30 -8 7 59 49 116 72 61 26 75 29 66 15z m2572
-47 c37 -28 50 -73 32 -110 -48 -100 -304 -71 -258 29 32 71 199 77 199 7 0
-22 -17 -36 -53 -45 -28 -7 -87 10 -87 26 0 11 45 23 62 16 7 -3 3 -6 -9 -6
-40 -2 -25 -21 16 -21 42 0 65 18 55 44 -13 33 -101 33 -150 1 -32 -21 -32
-60 2 -81 34 -23 128 -23 172 0 60 31 62 93 5 132 -39 26 -171 27 -229 1 -109
-49 -92 -169 27 -197 50 -12 133 -9 174 6 17 6 18 5 7 -7 -9 -9 -42 -15 -96
-17 -69 -3 -90 0 -124 17 -52 26 -72 55 -72 103 0 29 7 45 35 72 45 45 81 56
182 53 65 -2 87 -6 110 -23z m-2444 -68 c10 -110 38 -176 99 -231 51 -46 51
-46 29 -61 -64 -46 -95 -102 -117 -220 -9 -49 -20 -93 -24 -97 -4 -4 -14 32
-24 80 -22 113 -47 168 -97 214 l-40 37 50 47 c61 57 90 127 98 233 3 39 9 72
13 72 4 0 10 -33 13 -74z m4361 8 c17 -7 10 -34 -9 -34 -14 0 -27 25 -18 34 8
7 8 7 27 0z m-4106 -82 c4 -28 -24 -40 -45 -19 -21 21 -9 49 19 45 15 -2 24
-11 26 -26z m-1008 -107 c0 -19 -20 -29 -32 -17 -15 15 -2 43 17 36 8 -3 15
-12 15 -19z m2646 4 c87 -22 175 -127 199 -236 5 -26 12 -33 30 -33 56 0 94
-37 81 -78 -8 -23 -57 -52 -90 -52 -20 0 -29 -9 -46 -47 -48 -109 -136 -163
-266 -163 -70 0 -89 4 -142 31 -66 33 -111 80 -137 146 -13 34 -22 42 -50 47
-40 8 -85 41 -85 65 0 32 30 61 71 67 25 4 43 13 46 23 55 179 215 273 389
230z m1814 -39 c39 -39 20 -92 -41 -119 l-39 -18 21 -26 c13 -17 30 -27 47
-27 38 0 53 12 62 51 l9 34 -2 -34 c-1 -24 -10 -40 -28 -53 -24 -18 -28 -19
-62 -4 -21 8 -42 26 -49 40 -14 33 -42 33 -73 2 -43 -43 1 -105 66 -92 18 3
28 2 24 -4 -3 -6 -22 -10 -41 -10 -40 0 -84 37 -84 70 0 29 44 70 75 70 19 0
25 5 25 22 0 48 -62 75 -103 45 -10 -7 -24 -30 -32 -52 -10 -29 -14 -34 -15
-17 -1 57 45 98 105 94 24 -1 55 -37 55 -63 0 -28 36 -24 66 6 37 37 18 90
-34 98 l-27 4 28 2 c15 0 36 -8 47 -19z m-3130 -16 c0 -8 9 -14 21 -14 19 0
20 -2 8 -17 -8 -9 -13 -24 -11 -35 4 -20 -8 -24 -25 -7 -8 8 -13 8 -17 0 -11
-17 -29 -13 -22 5 4 10 -1 25 -10 35 -16 18 -16 19 4 19 12 0 23 8 27 20 7 22
25 18 25 -6z m-2140 -9 c-5 -6 -7 -15 -3 -18 3 -4 -3 -7 -14 -7 -24 0 -40 30
-22 40 19 12 51 0 39 -15z m5760 -70 c0 -16 -27 -27 -36 -14 -3 5 -3 16 0 24
6 17 36 9 36 -10z m-3064 -59 c3 -21 -34 -28 -38 -7 -5 21 14 42 26 30 6 -5
11 -15 12 -23z m1354 -126 c14 -27 -19 -65 -48 -56 -32 11 -39 46 -13 67 24
20 47 16 61 -11z m1686 -47 c95 -50 139 -124 139 -233 -1 -94 -29 -163 -90
-219 -112 -103 -299 -85 -389 37 -94 129 -85 293 23 383 57 48 94 59 191 56
62 -3 96 -9 126 -24z m-912 -13 c9 0 16 -4 16 -10 0 -5 -4 -10 -10 -10 -5 0
-10 -11 -10 -25 0 -22 -3 -24 -18 -16 -11 6 -24 6 -33 0 -22 -14 -31 -11 -20
8 7 13 5 23 -6 35 -15 17 -14 18 4 18 12 0 24 8 28 18 6 16 7 16 19 0 7 -10
21 -18 30 -18z m-2735 -5 c45 -38 57 -86 36 -141 -21 -56 -47 -74 -108 -74
-42 0 -54 5 -83 34 -29 29 -34 41 -34 79 0 102 115 164 189 102z m-969 -139
l24 -66 53 0 c29 0 53 -3 53 -7 0 -5 -18 -20 -40 -36 l-39 -27 20 -57 c10 -31
19 -58 19 -60 0 -11 -29 1 -73 29 -55 35 -42 37 -139 -20 -37 -22 -42 -13 -18
39 11 24 20 49 20 55 0 6 -18 23 -40 38 -23 15 -38 31 -35 36 4 6 30 10 59 10
l53 0 18 63 c29 97 29 97 65 3z m1575 50 c40 -17 55 -42 55 -91 0 -71 -71
-113 -144 -85 -60 22 -51 103 13 130 26 10 35 10 56 -4 44 -29 22 -101 -29
-94 -24 3 -30 48 -7 56 9 3 11 -1 6 -17 -8 -27 20 -29 35 -2 11 22 -9 51 -36
51 -18 0 -64 -44 -64 -61 0 -50 93 -67 135 -24 70 69 -17 159 -120 125 -70
-23 -100 -123 -51 -169 27 -25 97 -45 130 -36 17 5 18 4 6 -4 -42 -30 -140 1
-167 52 -33 64 9 155 82 176 44 13 62 13 100 -3z m1469 -90 c10 -36 25 -67 33
-70 8 -3 37 -6 64 -6 27 0 49 -4 49 -9 0 -5 -23 -27 -50 -48 -54 -41 -53 -35
-33 -135 7 -38 -12 -36 -60 3 l-37 31 -51 -32 c-27 -18 -53 -30 -56 -26 -3 3
3 30 14 60 l20 55 -48 47 c-56 55 -52 64 32 64 l57 0 17 65 c10 36 21 65 25
65 4 0 15 -29 24 -64z m818 -53 c-52 -61 -88 -133 -106 -211 -16 -68 -10 -78
18 -31 48 82 217 212 248 192 6 -3 -17 -18 -50 -34 -32 -16 -80 -50 -105 -76
-49 -51 -87 -98 -87 -106 0 -3 28 7 63 22 54 25 193 61 234 61 35 0 -2 -19
-50 -25 -78 -11 -193 -52 -243 -86 -24 -16 -48 -28 -53 -24 -20 11 15 158 56
238 24 49 102 142 111 133 2 -3 -14 -26 -36 -53z m168 49 c0 -4 -14 -13 -31
-21 -18 -8 -56 -34 -86 -58 -58 -47 -81 -54 -35 -10 22 21 138 97 149 97 2 0
3 -3 3 -8z m-4928 -112 c17 0 18 -3 8 -15 -7 -8 -10 -21 -7 -28 4 -10 -5 -13
-29 -13 -25 1 -34 5 -34 19 0 9 -4 17 -10 17 -5 0 -10 5 -10 10 0 6 7 10 15
10 9 0 18 7 22 16 5 15 7 15 15 0 5 -9 18 -16 30 -16z m240 -3 c17 -17 141
-30 155 -16 14 14 43 0 43 -23 0 -10 6 -31 14 -46 7 -15 14 -53 14 -84 1 -51
-2 -60 -23 -74 -23 -15 -27 -15 -50 0 -13 9 -42 16 -63 16 -86 0 -172 43 -193
97 -9 24 7 83 22 83 5 0 9 8 9 18 0 38 45 56 72 29z m1373 -32 c14 -13 25 -33
25 -43 0 -29 -37 -70 -70 -77 -26 -6 -28 -9 -18 -30 24 -54 96 -51 115 5 11
34 12 34 12 8 1 -35 -31 -68 -65 -68 -25 0 -76 41 -85 68 -7 20 -57 4 -75 -23
-31 -47 16 -95 81 -83 14 3 25 1 25 -3 0 -5 -20 -9 -44 -9 -36 0 -48 5 -65 26
-12 15 -21 35 -21 46 0 27 45 68 75 68 31 0 34 31 5 60 -23 23 -42 25 -73 9
-29 -16 -27 -13 -42 -56 -13 -36 -14 -36 -15 -10 0 39 49 87 89 87 36 0 71
-33 71 -68 0 -20 4 -22 23 -16 37 11 57 35 57 70 0 37 -26 59 -56 47 -12 -4
-15 -3 -10 5 11 19 35 14 61 -13z m3336 -20 c-35 -8 -81 -26 -103 -40 -21 -14
-38 -21 -38 -16 0 25 109 70 170 70 26 -1 19 -4 -29 -14z m-3758 -111 c-3 -8
-11 -14 -18 -14 -17 0 -27 28 -12 33 20 7 36 -4 30 -19z m-1398 -24 c0 -18 -6
-26 -23 -28 -27 -4 -40 22 -22 44 19 22 45 13 45 -16z m2199 -6 c9 -8 16 -22
16 -29 0 -17 -27 -45 -44 -45 -19 0 -36 22 -36 45 0 41 36 58 64 29z m3722
-59 c7 -29 -10 -55 -36 -55 -26 0 -43 26 -36 55 5 20 13 25 36 25 23 0 31 -5
36 -25z m-1372 -18 c16 -25 -16 -56 -38 -37 -19 15 -20 32 -4 48 15 15 28 11
42 -11z"/>
<path d="M4757 4023 c-3 -10 -8 -28 -11 -39 -6 -18 -3 -21 18 -17 22 4 23 8
15 35 -11 39 -16 44 -22 21z"/>
<path d="M4640 3941 c0 -5 13 -19 29 -30 25 -18 30 -19 35 -5 13 34 6 44 -29
44 -19 0 -35 -4 -35 -9z"/>
<path d="M4731 3931 c-17 -31 -13 -59 11 -75 21 -15 24 -14 46 8 21 20 23 28
15 52 -12 37 -56 46 -72 15z"/>
<path d="M4820 3925 c0 -31 11 -32 47 0 l28 24 -37 1 c-34 0 -38 -3 -38 -25z"/>
<path d="M4708 3853 c-3 -4 -8 -21 -12 -36 -6 -26 -5 -27 13 -17 29 15 35 30
18 47 -8 8 -17 11 -19 6z"/>
<path d="M4794 3846 c-18 -14 -18 -15 6 -35 34 -28 40 -26 30 10 -12 41 -13
41 -36 25z"/>
<path d="M285 4037 c-52 -25 -103 -75 -130 -127 l-16 -30 42 0 c52 0 47 -8
-12 -19 l-44 -9 65 -3 65 -2 -63 -6 c-87 -8 -83 -25 6 -22 39 1 72 -2 72 -7 0
-5 -8 -9 -17 -9 -101 1 -133 -4 -133 -19 0 -15 9 -16 75 -10 48 4 75 3 75 -3
0 -6 -34 -11 -77 -13 -104 -4 -93 -23 15 -24 45 -1 85 -4 89 -8 3 -3 -35 -6
-85 -6 -75 0 -92 -3 -92 -15 0 -12 15 -15 68 -16 52 -1 60 -3 37 -9 -16 -4
-47 -8 -68 -9 -21 0 -36 -5 -33 -10 3 -5 45 -7 93 -6 l88 4 -87 -11 c-63 -7
-88 -14 -88 -24 0 -10 18 -14 73 -16 l72 -2 -67 -3 c-78 -4 -93 -23 -18 -23
28 0 50 -4 50 -10 0 -5 -18 -10 -40 -10 -22 0 -40 -4 -40 -9 0 -18 79 -89 124
-111 58 -27 157 -37 223 -21 112 28 207 126 238 246 31 120 12 213 -60 293
-64 71 -124 95 -250 99 -89 4 -105 1 -150 -20z m241 -98 c52 -49 8 -149 -65
-149 -77 0 -112 100 -55 157 21 21 32 24 61 20 20 -4 46 -16 59 -28z m160 -94
c19 -19 23 -31 18 -48 -11 -37 -35 -57 -70 -57 -57 0 -85 69 -44 110 27 27 66
25 96 -5z m-138 -105 c29 -27 28 -55 -4 -86 -19 -20 -31 -24 -52 -19 -52 12
-69 68 -32 105 26 26 60 25 88 0z"/>
<path d="M424 3942 c-16 -11 -34 -48 -34 -71 0 -30 35 -61 70 -61 63 0 98 90
48 124 -24 17 -65 21 -84 8z"/>
<path d="M602 3838 c-24 -24 -12 -69 21 -81 41 -15 78 33 57 73 -12 23 -58 28
-78 8z"/>
<path d="M472 3728 c-17 -17 -15 -53 3 -68 38 -31 96 27 65 65 -15 18 -51 20
-68 3z"/>
<path d="M1790 3957 c0 -8 -9 -22 -20 -32 -11 -10 -20 -22 -20 -27 0 -6 9 -21
20 -35 11 -14 20 -34 20 -45 0 -11 5 -16 10 -13 6 3 10 13 10 22 0 8 10 28 21
45 l21 29 -21 23 c-11 12 -21 28 -21 34 0 7 -4 12 -10 12 -5 0 -10 -6 -10 -13z"/>
<path d="M1190 3996 c0 -8 -3 -21 -6 -30 -5 -12 0 -16 19 -16 24 0 25 2 14 30
-12 31 -27 40 -27 16z"/>
<path d="M1114 3915 c25 -19 32 -19 40 0 4 11 -2 15 -27 15 -30 -1 -31 -1 -13
-15z"/>
<path d="M1177 3923 c-14 -13 -6 -41 15 -55 20 -13 26 -13 45 -1 19 12 20 18
11 39 -8 17 -19 24 -38 24 -15 0 -30 -3 -33 -7z"/>
<path d="M1262 3918 c6 -18 22 -20 43 -3 19 14 18 14 -13 15 -22 0 -32 -4 -30
-12z"/>
<path d="M1155 3845 c-3 -8 -7 -22 -10 -30 -6 -21 9 -19 29 4 10 11 15 25 11
30 -9 16 -25 13 -30 -4z"/>
<path d="M1245 3849 c-4 -6 1 -17 11 -24 28 -21 35 -18 22 10 -12 27 -23 31
-33 14z"/>
<path d="M6033 3905 l-21 -33 24 -47 24 -47 10 28 c6 16 18 36 26 45 13 15 12
21 -8 52 -13 20 -25 36 -28 36 -3 0 -15 -15 -27 -34z"/>
<path d="M3440 3828 c0 -29 -53 -123 -86 -155 l-36 -33 41 -47 c38 -42 79
-140 82 -192 0 -9 11 16 23 54 29 89 47 123 85 159 l31 30 -35 29 c-35 28 -85
112 -85 141 0 8 -4 18 -10 21 -5 3 -10 0 -10 -7z m20 -132 c0 -8 7 -22 16 -30
14 -14 14 -18 0 -38 -9 -12 -16 -30 -16 -40 0 -28 -14 -21 -31 17 -15 32 -15
38 0 70 17 36 31 45 31 21z"/>
<path d="M2425 3595 l-30 -13 35 -1 c19 0 46 6 60 14 l25 14 -30 0 c-16 0 -43
-6 -60 -14z"/>
<path d="M2500 3585 c-14 -8 -46 -17 -72 -21 -27 -4 -48 -11 -48 -17 0 -9 69
-5 120 8 l25 6 -25 -15 c-14 -8 -49 -15 -77 -16 -46 0 -53 -3 -53 -20 0 -29
19 -33 112 -24 71 8 83 12 87 29 3 17 1 17 -12 6 -19 -15 -126 -31 -133 -19
-3 4 13 8 36 8 43 0 110 23 110 38 0 7 -37 53 -43 52 -1 -1 -13 -7 -27 -15z"/>
<path d="M2715 3555 c-5 -2 -36 -6 -67 -10 -48 -5 -58 -10 -58 -26 0 -23 -1
-23 131 0 139 24 170 41 74 40 -38 0 -74 -2 -80 -4z"/>
<path d="M2270 3504 c-14 -3 -56 -9 -93 -15 -47 -8 -66 -14 -59 -21 7 -7 51
-8 127 -3 100 6 116 9 113 24 -3 16 -39 23 -88 15z"/>
<path d="M2472 3468 c-44 -6 -70 -14 -66 -20 4 -6 26 -8 58 -3 57 7 56 -4 -1
-15 l-38 -8 35 -1 c36 -1 100 30 100 49 0 5 -3 9 -7 9 -5 -1 -41 -6 -81 -11z"/>
<path d="M4772 3535 c-8 -16 -23 -28 -42 -31 -25 -5 -30 -11 -30 -34 0 -16 11
-42 26 -59 20 -24 31 -29 53 -25 20 4 30 1 34 -10 5 -12 21 -16 71 -16 83 0
116 14 116 50 0 14 5 31 11 37 16 16 2 49 -30 72 -25 18 -123 41 -177 41 -13
0 -25 -10 -32 -25z m122 -45 c49 -18 22 -80 -34 -80 -32 0 -62 33 -53 57 5 13
35 31 55 32 4 1 18 -3 32 -9z"/>
<path d="M4824 3465 c-9 -23 9 -37 42 -33 21 2 29 8 29 23 0 26 -62 35 -71 10z"/>
<path d="M4065 3497 l-30 -12 40 -6 c39 -6 39 -6 -12 -8 -74 -2 -67 -21 8 -21
35 0 58 -4 54 -9 -3 -6 -33 -7 -69 -4 -52 4 -64 3 -69 -11 -5 -13 3 -16 51
-18 l57 -1 -58 -6 c-78 -8 -68 -26 16 -27 97 -2 96 -14 -1 -14 -66 0 -80 -3
-76 -14 4 -10 15 -13 39 -9 19 3 35 1 39 -6 5 -7 -5 -11 -28 -11 -20 0 -36 -5
-36 -11 0 -8 23 -10 75 -7 41 3 75 1 75 -4 0 -4 -29 -8 -65 -8 -77 0 -89 -19
-12 -21 46 -1 48 -2 17 -8 -28 -5 -31 -8 -17 -14 77 -30 177 37 177 118 -1 51
-34 110 -73 128 -40 19 -60 20 -102 4z"/>
<path d="M1340 3169 c-58 -56 -169 -152 -246 -214 -78 -63 -156 -131 -173
-152 -56 -68 -64 -161 -18 -210 42 -46 114 -20 226 82 76 70 378 385 368 385
-2 0 -21 -7 -42 -16 -20 -8 -40 -12 -44 -9 -13 14 -3 132 17 183 11 28 19 52
19 52 -1 -1 -49 -46 -107 -101z m-65 -145 c-86 -77 -185 -157 -190 -152 -3 3
39 42 94 87 54 45 104 88 111 96 7 8 18 15 24 15 6 -1 -11 -21 -39 -46z m-17
-82 c-69 -65 -140 -122 -153 -122 -5 1 4 11 20 23 17 12 63 53 103 90 40 38
75 67 78 64 3 -3 -19 -28 -48 -55z m116 37 c-36 -40 -238 -224 -219 -199 28
35 221 220 230 220 5 0 0 -10 -11 -21z m-320 -200 c37 -29 36 -76 -4 -114 -19
-18 -40 -28 -60 -28 -81 0 -97 107 -22 147 37 21 55 20 86 -5z"/>
<path d="M990 2773 c0 -11 51 -73 60 -73 15 0 6 63 -10 68 -13 5 -13 3 -1 -12
8 -9 11 -19 9 -22 -3 -3 -15 6 -26 20 -19 25 -32 33 -32 19z"/>
<path d="M970 2759 c0 -18 48 -89 60 -89 15 0 12 8 -17 48 -40 54 -43 58 -43
41z"/>
<path d="M945 2740 c-6 -10 22 -57 50 -80 22 -18 19 -6 -14 45 -16 26 -32 41
-36 35z"/>
<path d="M930 2699 c0 -16 37 -56 44 -48 2 2 -7 18 -20 34 -16 20 -24 25 -24
14z"/>
<path d="M1837 3308 c-41 -15 -27 -34 23 -30 81 5 88 -47 9 -68 l-41 -11 23
-25 c23 -25 23 -26 5 -39 -12 -10 -25 -11 -42 -5 -45 18 -68 -7 -41 -44 11
-14 18 -16 33 -9 22 12 44 6 59 -14 6 -7 23 -16 39 -19 16 -3 34 -12 40 -20 9
-12 16 -11 44 6 17 11 32 23 32 27 0 5 -25 9 -56 9 -41 1 -61 7 -75 21 -34 33
5 77 48 55 10 -5 27 -6 38 -1 11 4 35 8 53 8 27 1 32 5 32 26 0 31 -34 35 -50
5 -12 -23 -42 -20 -69 6 -13 11 -12 18 3 46 10 18 16 44 15 58 -4 22 -9 25
-49 27 -25 1 -58 -3 -73 -9z"/>
<path d="M1976 3285 c3 -8 -3 -30 -15 -48 -16 -26 -18 -36 -9 -45 17 -17 45
-15 52 3 3 8 17 15 31 15 33 0 32 12 -6 55 -31 35 -63 48 -53 20z"/>
<path d="M1770 3248 c-11 -18 -20 -49 -20 -68 0 -35 0 -36 44 -35 51 0 63 7
41 25 -25 21 -17 38 28 53 23 7 42 20 42 28 0 15 -26 17 -61 5 -14 -4 -27 -1
-38 9 -14 15 -17 13 -36 -17z"/>
<path d="M1991 3129 c-19 -4 -49 -5 -68 -2 -28 5 -33 3 -33 -15 0 -23 34 -34
107 -36 35 -1 44 3 53 22 19 43 14 46 -59 31z"/>
<path d="M1804 3058 c-4 -6 1 -17 12 -25 24 -17 92 -36 104 -28 18 11 10 25
-15 25 -14 0 -33 9 -42 20 -19 22 -48 26 -59 8z"/>
<path d="M3937 2998 c-21 -16 -139 -366 -126 -374 5 -3 9 -16 9 -28 0 -18 35
-50 158 -145 86 -66 163 -121 170 -121 19 0 28 29 78 245 41 182 44 203 33
238 -8 26 -23 44 -43 54 -17 9 -79 44 -137 79 -59 35 -111 64 -116 64 -5 0
-17 -6 -26 -12z"/>
<path d="M5380 2983 c-46 -17 -43 -28 11 -34 l54 -6 -62 -1 c-83 -3 -91 -20
-11 -25 l63 -3 -67 -2 c-52 -2 -68 -5 -68 -17 0 -11 20 -15 98 -18 l97 -3 -97
-2 c-80 -2 -98 -5 -98 -17 0 -12 14 -15 62 -15 34 0 58 -3 54 -7 -9 -10 -13
-10 -73 -12 -77 -2 -37 -21 50 -24 42 -1 77 -6 77 -10 0 -5 -34 -7 -75 -5 -63
2 -75 0 -73 -12 3 -12 19 -15 76 -14 39 0 72 -3 72 -8 0 -4 -28 -8 -62 -8 -57
-1 -61 -2 -44 -15 34 -26 85 -29 134 -9 60 25 87 63 87 122 -1 92 -59 153
-144 151 -25 0 -53 -3 -61 -6z"/>
<path d="M2951 2745 c-16 -59 -14 -65 19 -65 34 0 36 9 11 65 l-18 40 -12 -40z"/>
<path d="M2953 2662 c-15 -2 -26 -15 -34 -39 -11 -35 -10 -38 17 -60 36 -29
37 -29 73 5 30 27 30 28 15 64 -15 36 -19 38 -71 30z"/>
<path d="M3030 2666 c0 -3 5 -17 10 -31 l10 -26 30 21 c40 28 38 36 -10 38
-22 1 -40 0 -40 -2z"/>
<path d="M2831 2653 c0 -10 59 -57 63 -52 2 2 6 16 10 32 6 26 5 27 -34 27
-22 0 -40 -3 -39 -7z"/>
<path d="M3012 2547 l-21 -22 36 -23 c19 -13 37 -21 40 -19 6 7 -18 87 -27 87
-4 0 -16 -10 -28 -23z"/>
<path d="M2895 2519 c-4 -22 -4 -43 -1 -46 3 -4 20 6 36 22 l31 29 -23 18
c-32 25 -35 23 -43 -23z"/>
<path d="M1798 2726 c-67 -27 -144 -82 -175 -124 l-23 -31 38 -4 37 -4 -42 -1
c-69 -3 -62 -22 9 -23 l63 -2 -67 -10 c-49 -7 -68 -13 -68 -24 0 -13 11 -14
65 -8 43 4 65 3 65 -4 0 -6 -31 -11 -72 -13 -59 -2 -73 -6 -76 -20 -3 -15 4
-17 65 -12 50 4 64 3 53 -5 -8 -6 -39 -11 -67 -11 -40 0 -53 -4 -53 -15 0 -12
18 -15 103 -16 117 -1 96 -14 -28 -18 -85 -2 -95 -5 -78 -22 7 -7 35 -10 72
-7 34 2 61 1 61 -4 0 -4 -29 -8 -65 -8 -60 0 -65 -2 -65 -21 0 -20 3 -21 60
-15 40 5 60 3 60 -4 0 -6 -23 -10 -55 -10 -49 0 -55 -2 -55 -21 0 -19 4 -20
88 -15 66 4 76 3 42 -4 -25 -5 -62 -9 -83 -9 -26 -1 -37 -5 -34 -13 2 -9 25
-13 65 -13 34 0 62 -3 62 -7 0 -5 -25 -8 -55 -8 -56 0 -62 -4 -46 -29 7 -10
21 -12 53 -8 122 17 133 18 111 8 -12 -6 -49 -13 -83 -17 -79 -9 -74 -27 11
-35 l64 -6 -55 -2 -55 -2 43 -39 c111 -100 288 -105 446 -11 l48 29 -63 33
c-207 111 -316 332 -265 539 7 30 17 63 21 73 10 23 -7 22 -77 -7z"/>
<path d="M6011 2638 c-33 -18 -29 -32 14 -42 25 -6 39 -16 46 -32 5 -14 17
-27 26 -31 43 -16 36 -53 -10 -53 -18 0 -41 9 -55 23 l-24 22 -15 -22 c-9 -13
-22 -23 -29 -23 -18 0 -18 -11 -1 -35 13 -17 15 -17 36 4 13 13 29 20 38 17
44 -17 64 -17 95 2 18 11 38 21 43 21 12 0 19 46 11 68 -6 14 -8 14 -24 -1
-10 -9 -23 -16 -29 -16 -19 0 -41 35 -45 70 -2 29 -7 35 -28 38 -14 1 -36 -3
-49 -10z"/>
<path d="M6100 2605 c0 -46 29 -64 56 -34 18 21 18 21 -9 45 -38 32 -47 30
-47 -11z"/>
<path d="M5951 2581 c-6 -11 -11 -36 -11 -55 0 -41 17 -47 45 -16 10 11 23 20
30 20 7 0 20 -9 30 -20 19 -21 50 -26 60 -10 3 6 -5 14 -19 19 -14 6 -26 19
-28 33 -2 15 -12 24 -33 29 -16 4 -38 10 -47 14 -11 4 -20 0 -27 -14z"/>
<path d="M6124 2449 c-26 -16 -37 -17 -59 -9 -32 12 -65 5 -65 -15 0 -17 60
-30 97 -20 28 7 73 42 73 57 0 12 -11 9 -46 -13z"/>
<path d="M2536 2418 c-23 -35 -25 -43 -13 -57 8 -9 22 -29 30 -46 10 -17 16
-23 17 -14 0 9 11 32 25 52 15 23 20 39 14 43 -6 3 -18 19 -28 35 l-18 29 -27
-42z"/>
<path d="M3060 2230 c0 -5 5 -10 10 -10 6 0 10 5 10 10 0 6 -4 10 -10 10 -5 0
-10 -4 -10 -10z"/>
<path d="M3095 2227 c-6 -15 -15 -18 -36 -13 -33 6 -64 -20 -71 -59 -4 -18 0
-25 19 -30 13 -3 26 -12 30 -21 5 -13 8 -13 24 2 34 31 78 -12 45 -44 -14 -14
-20 -15 -37 -4 -18 11 -23 11 -34 -5 -12 -15 -12 -20 2 -30 22 -17 28 -16 43
2 16 20 37 19 48 -2 13 -23 42 -10 35 16 -7 26 13 51 40 51 17 0 19 5 14 46
-6 54 -28 84 -50 65 -19 -15 -46 -4 -57 23 -7 20 -8 20 -15 3z m2 -43 c9 -24
-10 -49 -38 -49 -24 0 -36 23 -25 51 7 19 55 18 63 -2z m87 -20 c20 -8 21 -38
1 -54 -31 -26 -82 13 -56 44 14 17 30 20 55 10z"/>
<path d="M3044 2175 c-7 -18 3 -35 21 -35 15 0 28 27 19 41 -8 14 -34 11 -40
-6z"/>
<path d="M3134 2149 c-8 -14 21 -43 35 -35 19 12 13 46 -8 46 -11 0 -23 -5
-27 -11z"/>
<path d="M3126 2233 c-3 -3 -3 -10 0 -14 7 -12 44 -12 44 0 0 10 -36 21 -44
14z"/>
<path d="M2990 2097 c0 -7 6 -22 14 -33 14 -18 15 -18 21 -1 4 9 5 24 1 32 -7
18 -36 20 -36 2z"/>
<path d="M3077 2103 c-13 -12 -7 -43 7 -43 16 0 25 19 18 38 -5 13 -15 16 -25
5z"/>
<path d="M3180 2065 c-6 -8 -8 -20 -4 -26 5 -9 11 -7 21 6 23 33 9 51 -17 20z"/>
<path d="M3096 2023 c-11 -11 -6 -23 9 -23 8 0 15 4 15 9 0 13 -16 22 -24 14z"/>
<path d="M5923 2125 c-11 -34 -11 -35 18 -35 16 0 29 2 29 5 0 8 -30 65 -34
65 -1 0 -7 -16 -13 -35z"/>
<path d="M5900 2061 c-16 -30 -12 -48 12 -65 27 -19 47 -20 71 -1 17 12 18 18
7 49 -10 32 -15 36 -45 36 -24 0 -38 -6 -45 -19z"/>
<path d="M6004 2064 c3 -9 6 -20 6 -25 0 -15 26 -10 43 9 24 27 21 32 -19 32
-29 0 -35 -3 -30 -16z"/>
<path d="M5840 2051 c26 -21 40 -19 40 5 0 9 -11 14 -32 14 l-33 0 25 -19z"/>
<path d="M5867 1963 c-7 -36 -3 -39 28 -19 21 14 24 20 14 32 -18 22 -36 17
-42 -13z"/>
<path d="M5987 1979 c-25 -14 -21 -26 12 -44 l30 -15 -9 31 c-12 40 -12 40
-33 28z"/>
<path d="M746 1851 c-144 -145 -143 -136 -36 -351 68 -136 84 -160 103 -160
13 0 85 53 187 137 133 109 166 141 168 164 3 23 -17 50 -128 173 -107 120
-136 146 -158 146 -21 0 -51 -24 -136 -109z"/>
<path d="M2465 1650 c-16 -7 -11 -9 20 -9 22 0 47 4 55 9 19 13 -46 13 -75 0z"/>
<path d="M2566 1643 c-4 -4 -41 -10 -84 -14 l-77 -6 66 -1 c77 -2 131 7 123
19 -6 11 -18 12 -28 2z"/>
<path d="M2525 1609 c-27 -5 -69 -6 -92 -3 -31 5 -43 3 -43 -6 0 -16 186 -9
215 8 19 11 18 11 -5 11 -14 -1 -47 -5 -75 -10z"/>
<path d="M2585 1588 c-16 -5 -67 -9 -112 -10 -48 0 -83 -5 -83 -11 0 -10 216
-4 227 6 14 14 -4 23 -32 15z"/>
<path d="M2475 1540 l-40 -7 45 0 c25 -1 59 3 75 7 l30 8 -35 -1 c-19 0 -53
-3 -75 -7z"/>
<path d="M3945 1906 c-38 -8 -126 -24 -195 -36 -257 -44 -340 -96 -340 -212 0
-60 30 -105 87 -130 42 -18 60 -20 167 -15 199 9 481 78 572 139 64 44 85 75
86 127 0 50 -22 86 -73 116 -43 25 -201 31 -304 11z m176 -37 c109 -37 118
-146 16 -212 -118 -77 -469 -130 -555 -84 -62 34 -76 115 -31 179 31 43 99 68
266 98 175 31 253 36 304 19z"/>
<path d="M3835 1835 c-154 -28 -199 -40 -241 -66 -67 -41 -70 -133 -5 -176 44
-30 122 -30 267 -2 278 53 368 113 323 213 -28 61 -126 70 -344 31z m253 -28
c15 -14 22 -32 22 -57 0 -74 -70 -109 -287 -144 -137 -22 -203 3 -203 78 0 69
42 96 191 125 179 35 237 34 277 -2z"/>
<path d="M3845 1800 c-124 -22 -192 -50 -204 -82 -13 -35 7 -77 46 -96 31 -15
41 -15 141 2 149 26 227 51 251 83 27 33 26 46 -2 79 -31 36 -89 39 -232 14z
m69 -40 c33 -12 35 -53 4 -74 -43 -31 -138 -10 -138 29 0 21 50 55 81 55 15 0
39 -4 53 -10z"/>
<path d="M3815 1736 c-30 -22 -12 -46 34 -46 52 0 71 8 71 30 0 31 -70 42
-105 16z"/>
<path d="M265 1883 c-10 -3 -30 -13 -44 -22 l-25 -16 49 -6 50 -6 -57 -1 c-80
-3 -86 -22 -7 -22 34 0 60 -2 57 -5 -3 -3 -31 -6 -62 -6 -31 -1 -59 -5 -62
-10 -3 -5 15 -9 40 -9 25 0 46 -4 46 -10 0 -5 -20 -10 -45 -10 -33 0 -45 -4
-45 -15 0 -12 16 -15 73 -17 l72 -2 -67 -3 c-51 -3 -68 -8 -68 -18 0 -15 10
-17 88 -17 17 0 32 -5 32 -9 0 -5 -21 -9 -47 -9 -44 0 -46 -1 -31 -17 27 -26
116 -29 156 -4 83 53 97 169 26 216 -26 17 -97 27 -129 18z"/>
<path d="M5462 1619 c14 -19 30 -47 35 -64 8 -26 16 -31 54 -36 l44 -6 -42 -1
c-48 -2 -60 -22 -13 -22 17 0 30 -4 30 -10 0 -5 -13 -10 -30 -10 -54 0 -31
-19 28 -23 l57 -3 -62 -2 c-70 -2 -87 -21 -20 -24 l42 -1 -44 -6 c-75 -10 -62
-30 21 -34 l73 -3 -77 -2 c-82 -2 -111 -22 -33 -22 25 0 45 -3 45 -7 0 -5 -23
-8 -52 -8 -71 0 -77 -23 -6 -28 l53 -3 -60 -2 c-45 -2 -65 -7 -76 -20 -9 -11
-27 -26 -40 -36 -20 -14 -22 -18 -9 -26 28 -17 119 -23 165 -10 59 17 119 70
140 125 27 69 18 164 -21 212 -34 43 -118 88 -183 98 l-44 7 25 -33z"/>
<path d="M4739 1405 c-209 -188 -328 -341 -337 -434 -4 -44 -2 -50 28 -74 76
-64 163 -16 338 186 48 57 102 123 119 148 l31 44 -38 -3 c-32 -3 -41 0 -56
23 -15 23 -16 32 -4 83 7 31 21 74 32 95 11 22 18 40 16 42 -2 2 -60 -47 -129
-110z m24 -75 c-20 -34 -162 -189 -163 -178 0 5 29 40 65 78 35 39 72 84 82
100 9 17 21 30 26 30 4 0 0 -14 -10 -30z m-15 -99 c-13 -16 -41 -51 -63 -79
-38 -49 -72 -74 -42 -32 31 44 113 139 120 139 5 1 -2 -12 -15 -28z m52 -31
c-11 -16 -25 -32 -31 -35 -5 -4 -32 -33 -59 -66 -28 -33 -50 -56 -50 -50 0 5
22 36 50 68 27 32 60 70 72 85 31 36 44 35 18 -2z m-221 -156 c12 -15 21 -35
21 -45 0 -25 -46 -77 -73 -81 -72 -12 -115 75 -62 127 34 35 86 34 114 -1z"/>
<path d="M4525 1050 c3 -5 16 -15 28 -21 22 -12 22 -12 3 10 -19 21 -43 30
-31 11z"/>
<path d="M4490 1043 c0 -4 10 -14 23 -22 12 -8 32 -21 45 -29 12 -8 22 -10 22
-4 0 5 -17 21 -37 33 -49 31 -53 32 -53 22z"/>
<path d="M4470 1020 c0 -13 79 -62 93 -57 6 2 -10 18 -35 35 -50 34 -58 37
-58 22z"/>
<path d="M4460 991 c0 -5 10 -16 23 -25 15 -12 17 -16 5 -12 -25 7 -22 -1 3
-15 16 -8 20 -8 14 0 -5 8 1 10 19 5 38 -9 32 1 -19 29 -25 14 -45 22 -45 18z"/>
<path d="M3035 1422 c-16 -2 -37 -10 -46 -18 -16 -14 -15 -17 8 -40 16 -16 22
-31 18 -42 -4 -9 -9 -22 -12 -28 -7 -18 24 -26 120 -31 66 -4 87 -3 87 7 0 9
12 10 44 6 39 -6 46 -4 60 16 33 46 7 93 -49 90 -24 -2 -37 2 -41 12 -7 19
-126 36 -189 28z m143 -48 c29 -20 25 -51 -9 -76 -52 -39 -117 25 -74 72 22
24 53 26 83 4z"/>
<path d="M3107 1364 c-12 -12 -8 -41 8 -54 24 -20 67 3 63 33 -2 16 -11 23
-33 25 -17 2 -34 0 -38 -4z"/>
<path d="M1730 1174 c0 -31 -52 -123 -86 -154 l-35 -30 40 -46 c36 -41 70
-118 84 -189 2 -14 7 -6 16 25 24 90 45 135 82 175 l38 41 -36 28 c-34 28 -83
114 -83 149 0 9 -4 17 -10 17 -5 0 -10 -7 -10 -16z m45 -160 c14 -11 14 -15
-4 -45 -12 -19 -21 -44 -21 -57 0 -31 -16 -20 -23 17 -3 16 -14 36 -23 45 -15
15 -15 19 -1 34 9 9 21 31 28 47 l12 30 8 -30 c5 -16 16 -35 24 -41z"/>
<path d="M3485 1071 c-34 -14 60 -34 122 -26 35 4 53 3 53 -4 0 -17 -135 -13
-176 4 -33 13 -39 13 -72 -4 -37 -19 -100 -77 -91 -85 2 -2 18 -11 34 -20 27
-15 27 -16 5 -11 -43 11 -53 10 -57 -2 -7 -20 56 -44 140 -53 l82 -8 -80 1
c-52 2 -92 8 -114 20 -35 17 -51 15 -51 -7 0 -17 73 -36 135 -36 25 0 44 -4
41 -8 -5 -9 -140 2 -170 14 -14 5 -17 3 -15 -11 6 -29 75 -47 214 -55 l130 -8
-140 2 c-111 2 -147 6 -172 19 l-33 18 0 -25 c0 -26 26 -38 105 -49 24 -3 21
-4 -12 -6 -23 0 -53 3 -67 9 -20 7 -26 6 -26 -4 0 -21 46 -25 315 -28 240 -3
240 -3 243 19 3 21 2 21 -155 18 l-158 -4 135 9 c178 12 180 13 180 51 0 28
-3 31 -22 25 -13 -4 -63 -9 -113 -10 -49 -2 -67 -2 -40 0 62 5 164 25 170 33
2 4 0 13 -5 21 -7 11 -18 11 -67 1 -33 -7 -70 -11 -84 -8 -21 4 -21 4 6 6 55
3 130 27 130 42 0 16 -10 16 -85 -6 -40 -12 -75 -14 -130 -10 -142 12 -155 22
-23 17 110 -4 140 -2 178 12 25 10 45 22 45 26 0 15 -19 21 -37 12 -31 -16
-73 -23 -73 -12 0 5 10 10 23 10 12 1 32 6 45 13 22 13 22 14 4 30 -18 16 -21
16 -63 -3 -24 -11 -63 -20 -86 -20 -55 0 -141 19 -150 33 -4 7 0 8 13 3 10 -5
46 -13 79 -19 49 -8 70 -7 118 7 31 9 57 21 57 25 0 5 -19 19 -43 30 -45 22
-151 28 -192 12z m38 -121 l82 -7 -69 -2 c-79 -1 -138 14 -163 42 -16 17 -14
17 25 -3 29 -15 71 -25 125 -30z"/>
<path d="M3178 809 c-10 -5 -18 -21 -18 -35 0 -19 8 -28 35 -40 51 -21 55 -19
55 36 0 48 -1 50 -27 50 -16 0 -36 -5 -45 -11z"/>
<path d="M3850 755 c0 -40 2 -45 23 -45 31 0 67 27 67 50 0 23 -28 40 -64 40
-24 0 -26 -3 -26 -45z"/>
<path d="M3283 687 c5 -17 62 -26 175 -27 56 -1 102 -6 102 -11 0 -12 -129
-12 -204 1 -65 10 -68 10 -58 -7 4 -7 32 -15 62 -19 72 -8 76 -14 10 -14 -51
0 -53 -1 -37 -17 14 -14 41 -18 149 -21 73 -2 138 -9 143 -14 10 -11 -216 -3
-252 8 -43 14 31 -36 83 -55 62 -24 114 -26 180 -10 83 21 63 33 -44 25 -69
-5 -102 -4 -102 4 0 6 43 10 118 10 117 0 119 0 145 28 15 15 27 30 27 33 0 2
-49 3 -108 1 -59 -2 -123 0 -142 6 -26 6 2 9 106 9 170 0 215 15 69 24 l-100
5 103 2 c60 1 102 6 102 12 0 6 0 13 0 16 0 4 -87 9 -192 11 -106 2 -226 5
-266 7 -52 3 -72 1 -69 -7z"/>
<path d="M5722 730 c-57 -12 -107 -44 -137 -88 -14 -20 -25 -40 -25 -44 0 -4
21 -9 48 -11 l47 -3 -52 -2 c-65 -2 -71 -22 -7 -22 31 0 43 -4 38 -11 -4 -7
-23 -9 -52 -5 -34 5 -43 3 -35 -5 6 -6 33 -10 62 -8 28 2 51 1 51 -3 0 -8 -42
-12 -92 -8 -19 1 -28 -3 -28 -13 0 -19 41 -29 88 -22 31 5 34 4 19 -5 -10 -7
-38 -10 -63 -8 -33 2 -44 0 -44 -11 0 -11 15 -12 80 -7 54 5 80 4 80 -3 0 -7
-30 -11 -81 -11 -95 0 -101 -19 -6 -22 l62 -2 -57 -3 c-42 -3 -58 -8 -58 -18
0 -11 13 -15 48 -17 l47 -1 -43 -4 c-76 -7 -43 -26 44 -25 67 0 73 -1 39 -8
-22 -5 -55 -9 -73 -9 -54 -1 -26 -21 31 -23 l52 -1 -45 -6 -45 -6 40 -26 c58
-39 110 -52 172 -46 129 13 222 125 222 267 1 62 -31 140 -70 177 -56 52 -172
80 -257 63z m148 -90 c11 -11 20 -31 20 -45 0 -29 -32 -65 -58 -65 -34 0 -62
29 -62 65 0 57 60 85 100 45z m110 -64 c16 -21 9 -56 -15 -72 -41 -27 -88 39
-53 74 16 16 53 15 68 -2z m-99 -66 c37 -20 18 -80 -26 -80 -42 0 -59 44 -29
74 18 19 28 20 55 6z"/>
<path d="M5796 624 c-9 -8 -16 -22 -16 -29 0 -7 7 -21 16 -29 30 -30 74 -13
74 29 0 42 -44 59 -74 29z"/>
<path d="M5933 573 c-18 -6 -16 -50 2 -57 14 -5 45 18 45 34 0 13 -32 28 -47
23z"/>
<path d="M5837 494 c-12 -12 -8 -42 6 -47 21 -8 39 8 35 29 -3 19 -29 30 -41
18z"/>
<path d="M2160 695 c-10 -12 -10 -15 3 -15 19 0 31 16 18 24 -5 3 -14 -1 -21
-9z"/>
<path d="M2197 690 c-4 -14 -14 -20 -34 -20 -16 0 -34 -5 -41 -12 -18 -18 -15
-65 4 -72 11 -4 14 -13 10 -30 -7 -29 10 -45 52 -51 24 -3 34 2 47 21 9 15 23
23 37 21 32 -3 50 49 24 68 -13 10 -17 22 -14 40 9 46 -73 80 -85 35z m53 -31
c0 -14 -5 -19 -17 -17 -26 5 -29 38 -4 38 15 0 21 -6 21 -21z m-62 -35 c4 -29
-28 -41 -45 -18 -10 13 -10 21 -1 31 16 19 42 12 46 -13z m86 -13 c10 -16 -5
-41 -24 -41 -23 0 -34 16 -26 35 6 16 42 20 50 6z m-64 -46 c17 -20 5 -45 -20
-45 -11 0 -23 7 -26 15 -6 15 11 45 26 45 4 0 13 -7 20 -15z"/>
<path d="M2225 660 c3 -5 8 -10 11 -10 2 0 4 5 4 10 0 6 -5 10 -11 10 -5 0 -7
-4 -4 -10z"/>
<path d="M2150 625 c0 -8 7 -15 15 -15 8 0 15 7 15 15 0 8 -7 15 -15 15 -8 0
-15 -7 -15 -15z"/>
<path d="M2237 603 c-12 -11 -8 -23 8 -23 8 0 15 7 15 15 0 16 -12 20 -23 8z"/>
<path d="M2175 551 c-3 -5 -1 -12 5 -16 12 -7 30 2 30 16 0 12 -27 12 -35 0z"/>
<path d="M2290 645 c0 -8 4 -15 10 -15 5 0 7 7 4 15 -4 8 -8 15 -10 15 -2 0
-4 -7 -4 -15z"/>
<path d="M2110 570 c0 -5 5 -10 11 -10 5 0 7 5 4 10 -3 6 -8 10 -11 10 -2 0
-4 -4 -4 -10z"/>
<path d="M2250 519 c0 -5 5 -7 10 -4 6 3 10 8 10 11 0 2 -4 4 -10 4 -5 0 -10
-5 -10 -11z"/>
<path d="M1261 559 c-17 -50 -14 -59 19 -59 17 0 30 4 30 9 0 12 -29 81 -34
81 -2 0 -9 -14 -15 -31z"/>
<path d="M1150 476 c0 -2 11 -11 25 -20 23 -15 25 -15 35 4 10 18 8 20 -25 20
-19 0 -35 -2 -35 -4z"/>
<path d="M1230 471 c0 -5 -3 -16 -6 -24 -3 -10 4 -22 21 -33 26 -17 28 -17 61
1 22 12 33 24 29 33 -3 7 -5 18 -5 23 0 5 -22 9 -50 9 -27 0 -50 -4 -50 -9z"/>
<path d="M1346 465 c4 -8 10 -15 14 -15 4 0 13 7 20 15 11 13 8 15 -13 15 -19
0 -25 -4 -21 -15z"/>
<path d="M1320 402 l-24 -20 34 -20 c19 -12 35 -20 37 -18 2 1 -3 20 -10 40
l-13 38 -24 -20z"/>
<path d="M1199 384 c-5 -15 -12 -31 -16 -36 -6 -10 33 7 55 25 9 7 9 13 1 23
-17 21 -28 17 -40 -12z"/>
<path d="M4314 495 c-11 -34 -10 -35 14 -35 20 0 23 4 18 23 -3 12 -6 28 -6
35 0 24 -15 11 -26 -23z"/>
<path d="M4210 405 c19 -19 37 -35 40 -35 4 0 11 16 17 35 l11 35 -51 0 -51 0
34 -35z"/>
<path d="M4295 430 c-4 -6 -11 -25 -16 -42 -7 -25 -5 -36 8 -50 9 -10 22 -18
28 -18 19 0 64 40 60 53 -2 7 -6 24 -9 40 -5 22 -12 27 -36 27 -16 0 -32 -5
-35 -10z"/>
<path d="M4381 428 c1 -7 4 -23 7 -35 l7 -23 34 27 35 27 -25 7 c-39 11 -59
10 -58 -3z"/>
<path d="M4250 304 c-16 -41 -12 -47 20 -24 25 18 28 25 19 36 -17 21 -28 17
-39 -12z"/>
<path d="M4349 314 c-11 -14 -10 -19 10 -35 32 -27 38 -24 33 16 -4 38 -21 45
-43 19z"/>
<path d="M655 360 c-6 -19 -12 -21 -42 -17 -29 5 -36 2 -45 -17 -25 -57 40
-113 143 -122 63 -6 64 -6 81 25 12 22 24 31 43 31 16 0 25 6 25 16 0 21 -19
54 -31 54 -5 0 -22 9 -37 20 -15 10 -50 22 -78 26 -48 6 -52 4 -59 -16z m107
-47 c22 -20 22 -27 2 -47 -21 -22 -77 -20 -105 3 -23 19 -24 19 -5 40 23 26
82 28 108 4z"/>
<path d="M665 300 c-12 -19 10 -32 51 -28 27 2 39 8 39 18 0 19 -79 27 -90 10z"/>
</g>
</svg>
